<?xml version="1.0" encoding="UTF-8" standalone="no"?>
<!DOCTYPE svg PUBLIC "-//W3C//DTD SVG 1.1//EN"
 "http://www.w3.org/Graphics/SVG/1.1/DTD/svg11.dtd">
<!-- Generated by graphviz version 2.40.1 (20161225.0304)
 -->
<!-- Title: /home/workdir/assets/artifacts/tempDir/runtimes_visualization.svg Pages: 1 -->
<svg width="1272pt" height="997pt"
 viewBox="0.00 0.00 1272.00 996.80" xmlns="http://www.w3.org/2000/svg" xmlns:xlink="http://www.w3.org/1999/xlink">
<g id="graph0" class="graph" transform="scale(1 1) rotate(0) translate(468 982.4)">
<title>/home/workdir/assets/artifacts/tempDir/runtimes_visualization.svg</title>
<polygon fill="#ffffff" stroke="transparent" points="-468,14.4 -468,-982.4 804,-982.4 804,14.4 -468,14.4"/>
<g id="clust1" class="cluster">
<title>cluster_0</title>
<path fill="none" stroke="#375588" stroke-width="2" d="M221,-744C221,-744 267,-744 267,-744 273,-744 279,-750 279,-756 279,-756 279,-848 279,-848 279,-854 273,-860 267,-860 267,-860 221,-860 221,-860 215,-860 209,-854 209,-848 209,-848 209,-756 209,-756 209,-750 215,-744 221,-744"/>
</g>
<g id="clust2" class="cluster">
<title>cluster_1</title>
<path fill="none" stroke="#338533" stroke-width="2" d="M112,-620C112,-620 230,-620 230,-620 236,-620 242,-626 242,-632 242,-632 242,-697 242,-697 242,-703 236,-709 230,-709 230,-709 112,-709 112,-709 106,-709 100,-703 100,-697 100,-697 100,-632 100,-632 100,-626 106,-620 112,-620"/>
</g>
<g id="clust3" class="cluster">
<title>cluster_2</title>
<path fill="none" stroke="#4b1616" stroke-width="2" d="M106.6667,-550C106.6667,-550 153.3333,-550 153.3333,-550 159.1667,-550 165,-555.8333 165,-561.6667 165,-561.6667 165,-573.3333 165,-573.3333 165,-579.1667 159.1667,-585 153.3333,-585 153.3333,-585 106.6667,-585 106.6667,-585 100.8333,-585 95,-579.1667 95,-573.3333 95,-573.3333 95,-561.6667 95,-561.6667 95,-555.8333 100.8333,-550 106.6667,-550"/>
</g>
<g id="clust4" class="cluster">
<title>cluster_3</title>
<path fill="none" stroke="#209070" stroke-width="2" d="M97,-426C97,-426 219,-426 219,-426 225,-426 231,-432 231,-438 231,-438 231,-503 231,-503 231,-509 225,-515 219,-515 219,-515 97,-515 97,-515 91,-515 85,-509 85,-503 85,-503 85,-438 85,-438 85,-432 91,-426 97,-426"/>
</g>
<g id="clust5" class="cluster">
<title>cluster_4</title>
<path fill="none" stroke="#30c0d0" stroke-width="2" d="M149.6667,-356C149.6667,-356 196.3333,-356 196.3333,-356 202.1667,-356 208,-361.8333 208,-367.6667 208,-367.6667 208,-379.3333 208,-379.3333 208,-385.1667 202.1667,-391 196.3333,-391 196.3333,-391 149.6667,-391 149.6667,-391 143.8333,-391 138,-385.1667 138,-379.3333 138,-379.3333 138,-367.6667 138,-367.6667 138,-361.8333 143.8333,-356 149.6667,-356"/>
</g>
<g id="clust6" class="cluster">
<title>cluster_5</title>
<path fill="none" stroke="#b07320" stroke-width="2" d="M81,-232C81,-232 203,-232 203,-232 209,-232 215,-238 215,-244 215,-244 215,-309 215,-309 215,-315 209,-321 203,-321 203,-321 81,-321 81,-321 75,-321 69,-315 69,-309 69,-309 69,-244 69,-244 69,-238 75,-232 81,-232"/>
</g>
<g id="clust7" class="cluster">
<title>cluster_6</title>
<path fill="none" stroke="#dc143c" stroke-width="2" d="M20,-27C20,-27 316,-27 316,-27 322,-27 328,-33 328,-39 328,-39 328,-185 328,-185 328,-191 322,-197 316,-197 316,-197 20,-197 20,-197 14,-197 8,-191 8,-185 8,-185 8,-39 8,-39 8,-33 14,-27 20,-27"/>
</g>
<!-- Name : Conv_6
Info :  -->
<g id="node1" class="node">
<title>Name : Conv_6
Info : </title>
<path fill="#375588" stroke="#000000" d="M264.6667,-852C264.6667,-852 223.3333,-852 223.3333,-852 220.1667,-852 217,-848.8333 217,-845.6667 217,-845.6667 217,-839.3333 217,-839.3333 217,-836.1667 220.1667,-833 223.3333,-833 223.3333,-833 264.6667,-833 264.6667,-833 267.8333,-833 271,-836.1667 271,-839.3333 271,-839.3333 271,-845.6667 271,-845.6667 271,-848.8333 267.8333,-852 264.6667,-852"/>
<text text-anchor="middle" x="244" y="-840" font-family="Times,serif" font-size="10.00" fill="#ffffff">3:Conv</text>
</g>
<!-- Name : Relu_7
Info :  -->
<g id="node2" class="node">
<title>Name : Relu_7
Info : </title>
<path fill="#375588" stroke="#000000" d="M264.6667,-825C264.6667,-825 223.3333,-825 223.3333,-825 220.1667,-825 217,-821.8333 217,-818.6667 217,-818.6667 217,-812.3333 217,-812.3333 217,-809.1667 220.1667,-806 223.3333,-806 223.3333,-806 264.6667,-806 264.6667,-806 267.8333,-806 271,-809.1667 271,-812.3333 271,-812.3333 271,-818.6667 271,-818.6667 271,-821.8333 267.8333,-825 264.6667,-825"/>
<text text-anchor="middle" x="244" y="-813" font-family="Times,serif" font-size="10.00" fill="#ffffff">4:Relu</text>
</g>
<!-- Name : Conv_6
Info : &#45;&gt;Name : Relu_7
Info :  -->
<g id="edge4" class="edge">
<title>Name : Conv_6
Info : &#45;&gt;Name : Relu_7
Info : </title>
<path fill="none" stroke="#000000" stroke-width=".7" d="M244,-832.7524C244,-831.9971 244,-831.2248 244,-830.4461"/>
<polygon fill="#000000" stroke="#000000" stroke-width=".7" points="244,-825.324 246.2501,-830.324 244,-827.824 244.0001,-830.324 244.0001,-830.324 244.0001,-830.324 244,-827.824 241.7501,-830.324 244,-825.324 244,-825.324"/>
</g>
<!-- Name : Conv_8
Info :  -->
<g id="node3" class="node">
<title>Name : Conv_8
Info : </title>
<path fill="#375588" stroke="#000000" d="M264.6667,-798C264.6667,-798 223.3333,-798 223.3333,-798 220.1667,-798 217,-794.8333 217,-791.6667 217,-791.6667 217,-785.3333 217,-785.3333 217,-782.1667 220.1667,-779 223.3333,-779 223.3333,-779 264.6667,-779 264.6667,-779 267.8333,-779 271,-782.1667 271,-785.3333 271,-785.3333 271,-791.6667 271,-791.6667 271,-794.8333 267.8333,-798 264.6667,-798"/>
<text text-anchor="middle" x="244" y="-786" font-family="Times,serif" font-size="10.00" fill="#ffffff">5:Conv</text>
</g>
<!-- Name : Relu_7
Info : &#45;&gt;Name : Conv_8
Info :  -->
<g id="edge5" class="edge">
<title>Name : Relu_7
Info : &#45;&gt;Name : Conv_8
Info : </title>
<path fill="none" stroke="#000000" stroke-width=".7" d="M244,-805.7524C244,-804.9971 244,-804.2248 244,-803.4461"/>
<polygon fill="#000000" stroke="#000000" stroke-width=".7" points="244,-798.324 246.2501,-803.324 244,-800.824 244.0001,-803.324 244.0001,-803.324 244.0001,-803.324 244,-800.824 241.7501,-803.324 244,-798.324 244,-798.324"/>
</g>
<!-- Name : Relu_9
Info :  -->
<g id="node4" class="node">
<title>Name : Relu_9
Info : </title>
<path fill="#375588" stroke="#000000" d="M264.6667,-771C264.6667,-771 223.3333,-771 223.3333,-771 220.1667,-771 217,-767.8333 217,-764.6667 217,-764.6667 217,-758.3333 217,-758.3333 217,-755.1667 220.1667,-752 223.3333,-752 223.3333,-752 264.6667,-752 264.6667,-752 267.8333,-752 271,-755.1667 271,-758.3333 271,-758.3333 271,-764.6667 271,-764.6667 271,-767.8333 267.8333,-771 264.6667,-771"/>
<text text-anchor="middle" x="244" y="-759" font-family="Times,serif" font-size="10.00" fill="#ffffff">6:Relu</text>
</g>
<!-- Name : Conv_8
Info : &#45;&gt;Name : Relu_9
Info :  -->
<g id="edge6" class="edge">
<title>Name : Conv_8
Info : &#45;&gt;Name : Relu_9
Info : </title>
<path fill="none" stroke="#000000" stroke-width=".7" d="M244,-778.7524C244,-777.9971 244,-777.2248 244,-776.4461"/>
<polygon fill="#000000" stroke="#000000" stroke-width=".7" points="244,-771.324 246.2501,-776.324 244,-773.824 244.0001,-776.324 244.0001,-776.324 244.0001,-776.324 244,-773.824 241.7501,-776.324 244,-771.324 244,-771.324"/>
</g>
<!-- Name : Conv_31
Info :  -->
<g id="node29" class="node">
<title>Name : Conv_31
Info : </title>
<path fill="#dc143c" stroke="#000000" d="M312.6667,-135C312.6667,-135 269.3333,-135 269.3333,-135 266.1667,-135 263,-131.8333 263,-128.6667 263,-128.6667 263,-122.3333 263,-122.3333 263,-119.1667 266.1667,-116 269.3333,-116 269.3333,-116 312.6667,-116 312.6667,-116 315.8333,-116 319,-119.1667 319,-122.3333 319,-122.3333 319,-128.6667 319,-128.6667 319,-131.8333 315.8333,-135 312.6667,-135"/>
<text text-anchor="middle" x="291" y="-123" font-family="Times,serif" font-size="10.00" fill="#ffffff">37:Conv</text>
</g>
<!-- Name : Relu_9
Info : &#45;&gt;Name : Conv_31
Info :  -->
<g id="edge8" class="edge">
<title>Name : Relu_9
Info : &#45;&gt;Name : Conv_31
Info : </title>
<path fill="none" stroke="#000000" stroke-width=".7" d="M252.9567,-751.9169C263.9069,-739.1608 281,-715.4181 281,-691.5 281,-691.5 281,-691.5 281,-179.5 281,-166.0625 284.0309,-151.0537 286.7555,-140.2766"/>
<polygon fill="#000000" stroke="#000000" stroke-width=".7" points="288.0538,-135.3514 288.9549,-140.7598 287.4165,-137.7688 286.7792,-140.1862 286.7792,-140.1862 286.7792,-140.1862 287.4165,-137.7688 284.6035,-139.6127 288.0538,-135.3514 288.0538,-135.3514"/>
</g>
<!-- Name : MaxPool_10
Info : ALLOWLISTING : POOLING layer : Number of input dimensions must be 4 &#160;&#45;&#45; &#160;file info &#45; tidl_import_common_model_check.cpp , TIDL_checkPoolingTensorProperties , 618 -->
<g id="node36" class="node">
<title>Name : MaxPool_10
Info : ALLOWLISTING : POOLING layer : Number of input dimensions must be 4 &#160;&#45;&#45; &#160;file info &#45; tidl_import_common_model_check.cpp , TIDL_checkPoolingTensorProperties , 618</title>
<path fill="#707070" stroke="#000000" d="M234.6667,-736C234.6667,-736 179.3333,-736 179.3333,-736 176.1667,-736 173,-732.8333 173,-729.6667 173,-729.6667 173,-723.3333 173,-723.3333 173,-720.1667 176.1667,-717 179.3333,-717 179.3333,-717 234.6667,-717 234.6667,-717 237.8333,-717 241,-720.1667 241,-723.3333 241,-723.3333 241,-729.6667 241,-729.6667 241,-732.8333 237.8333,-736 234.6667,-736"/>
<text text-anchor="middle" x="207" y="-724" font-family="Times,serif" font-size="10.00" fill="#ffffff">7:MaxPool</text>
</g>
<!-- Name : Relu_9
Info : &#45;&gt;Name : MaxPool_10
Info : ALLOWLISTING : POOLING layer : Number of input dimensions must be 4 &#160;&#45;&#45; &#160;file info &#45; tidl_import_common_model_check.cpp , TIDL_checkPoolingTensorProperties , 618 -->
<g id="edge7" class="edge">
<title>Name : Relu_9
Info : &#45;&gt;Name : MaxPool_10
Info : ALLOWLISTING : POOLING layer : Number of input dimensions must be 4 &#160;&#45;&#45; &#160;file info &#45; tidl_import_common_model_check.cpp , TIDL_checkPoolingTensorProperties , 618</title>
<path fill="none" stroke="#000000" stroke-width=".7" d="M233.8896,-751.9361C229.8925,-748.155 225.2324,-743.7469 220.9253,-739.6726"/>
<polygon fill="#000000" stroke="#000000" stroke-width=".7" points="217.0982,-736.0523 222.2768,-737.8538 218.9144,-737.7704 220.7306,-739.4884 220.7306,-739.4884 220.7306,-739.4884 218.9144,-737.7704 219.1843,-741.1229 217.0982,-736.0523 217.0982,-736.0523"/>
</g>
<!-- Name : Conv_14
Info :  -->
<g id="node5" class="node">
<title>Name : Conv_14
Info : </title>
<path fill="#338533" stroke="#000000" d="M227.6667,-701C227.6667,-701 186.3333,-701 186.3333,-701 183.1667,-701 180,-697.8333 180,-694.6667 180,-694.6667 180,-688.3333 180,-688.3333 180,-685.1667 183.1667,-682 186.3333,-682 186.3333,-682 227.6667,-682 227.6667,-682 230.8333,-682 234,-685.1667 234,-688.3333 234,-688.3333 234,-694.6667 234,-694.6667 234,-697.8333 230.8333,-701 227.6667,-701"/>
<text text-anchor="middle" x="207" y="-689" font-family="Times,serif" font-size="10.00" fill="#ffffff">8:Conv</text>
</g>
<!-- Name : Add_15
Info : ALLOWLISTING : ADD/MUL/SUB layer : The variable inputs of layer must have 4 dimensions &#160;&#45;&#45; &#160;file info &#45; tidl_import_common_model_check.cpp , TIDL_checkAddMulSubDivTensorProperties , 281 -->
<g id="node37" class="node">
<title>Name : Add_15
Info : ALLOWLISTING : ADD/MUL/SUB layer : The variable inputs of layer must have 4 dimensions &#160;&#45;&#45; &#160;file info &#45; tidl_import_common_model_check.cpp , TIDL_checkAddMulSubDivTensorProperties , 281</title>
<path fill="#707070" stroke="#000000" d="M156.6667,-612C156.6667,-612 115.3333,-612 115.3333,-612 112.1667,-612 109,-608.8333 109,-605.6667 109,-605.6667 109,-599.3333 109,-599.3333 109,-596.1667 112.1667,-593 115.3333,-593 115.3333,-593 156.6667,-593 156.6667,-593 159.8333,-593 163,-596.1667 163,-599.3333 163,-599.3333 163,-605.6667 163,-605.6667 163,-608.8333 159.8333,-612 156.6667,-612"/>
<text text-anchor="middle" x="136" y="-600" font-family="Times,serif" font-size="10.00" fill="#ffffff">12:Add</text>
</g>
<!-- Name : Conv_14
Info : &#45;&gt;Name : Add_15
Info : ALLOWLISTING : ADD/MUL/SUB layer : The variable inputs of layer must have 4 dimensions &#160;&#45;&#45; &#160;file info &#45; tidl_import_common_model_check.cpp , TIDL_checkAddMulSubDivTensorProperties , 281 -->
<g id="edge11" class="edge">
<title>Name : Conv_14
Info : &#45;&gt;Name : Add_15
Info : ALLOWLISTING : ADD/MUL/SUB layer : The variable inputs of layer must have 4 dimensions &#160;&#45;&#45; &#160;file info &#45; tidl_import_common_model_check.cpp , TIDL_checkAddMulSubDivTensorProperties , 281</title>
<path fill="none" stroke="#000000" stroke-width=".7" d="M204.6927,-681.9535C200.6344,-666.986 190.9022,-637.8649 173,-620 171.0509,-618.055 168.8442,-616.2978 166.5024,-614.7163"/>
<polygon fill="#000000" stroke="#000000" stroke-width=".7" points="162.1678,-612.0563 167.6063,-612.7538 164.2986,-613.3639 166.4294,-614.6715 166.4294,-614.6715 166.4294,-614.6715 164.2986,-613.3639 165.2526,-616.5892 162.1678,-612.0563 162.1678,-612.0563"/>
</g>
<!-- Name : Conv_11
Info :  -->
<g id="node6" class="node">
<title>Name : Conv_11
Info : </title>
<path fill="#338533" stroke="#000000" d="M155.6667,-701C155.6667,-701 114.3333,-701 114.3333,-701 111.1667,-701 108,-697.8333 108,-694.6667 108,-694.6667 108,-688.3333 108,-688.3333 108,-685.1667 111.1667,-682 114.3333,-682 114.3333,-682 155.6667,-682 155.6667,-682 158.8333,-682 162,-685.1667 162,-688.3333 162,-688.3333 162,-694.6667 162,-694.6667 162,-697.8333 158.8333,-701 155.6667,-701"/>
<text text-anchor="middle" x="135" y="-689" font-family="Times,serif" font-size="10.00" fill="#ffffff">9:Conv</text>
</g>
<!-- Name : Relu_12
Info :  -->
<g id="node7" class="node">
<title>Name : Relu_12
Info : </title>
<path fill="#338533" stroke="#000000" d="M156.6667,-674C156.6667,-674 115.3333,-674 115.3333,-674 112.1667,-674 109,-670.8333 109,-667.6667 109,-667.6667 109,-661.3333 109,-661.3333 109,-658.1667 112.1667,-655 115.3333,-655 115.3333,-655 156.6667,-655 156.6667,-655 159.8333,-655 163,-658.1667 163,-661.3333 163,-661.3333 163,-667.6667 163,-667.6667 163,-670.8333 159.8333,-674 156.6667,-674"/>
<text text-anchor="middle" x="136" y="-662" font-family="Times,serif" font-size="10.00" fill="#ffffff">10:Relu</text>
</g>
<!-- Name : Conv_11
Info : &#45;&gt;Name : Relu_12
Info :  -->
<g id="edge12" class="edge">
<title>Name : Conv_11
Info : &#45;&gt;Name : Relu_12
Info : </title>
<path fill="none" stroke="#000000" stroke-width=".7" d="M135.361,-681.7524C135.389,-680.9971 135.4176,-680.2248 135.4464,-679.4461"/>
<polygon fill="#000000" stroke="#000000" stroke-width=".7" points="135.6361,-674.324 137.6995,-679.4039 135.5436,-676.8223 135.451,-679.3206 135.451,-679.3206 135.451,-679.3206 135.5436,-676.8223 133.2025,-679.2373 135.6361,-674.324 135.6361,-674.324"/>
</g>
<!-- Name : Conv_13
Info :  -->
<g id="node8" class="node">
<title>Name : Conv_13
Info : </title>
<path fill="#338533" stroke="#000000" d="M157.6667,-647C157.6667,-647 114.3333,-647 114.3333,-647 111.1667,-647 108,-643.8333 108,-640.6667 108,-640.6667 108,-634.3333 108,-634.3333 108,-631.1667 111.1667,-628 114.3333,-628 114.3333,-628 157.6667,-628 157.6667,-628 160.8333,-628 164,-631.1667 164,-634.3333 164,-634.3333 164,-640.6667 164,-640.6667 164,-643.8333 160.8333,-647 157.6667,-647"/>
<text text-anchor="middle" x="136" y="-635" font-family="Times,serif" font-size="10.00" fill="#ffffff">11:Conv</text>
</g>
<!-- Name : Relu_12
Info : &#45;&gt;Name : Conv_13
Info :  -->
<g id="edge13" class="edge">
<title>Name : Relu_12
Info : &#45;&gt;Name : Conv_13
Info : </title>
<path fill="none" stroke="#000000" stroke-width=".7" d="M136,-654.7524C136,-653.9971 136,-653.2248 136,-652.4461"/>
<polygon fill="#000000" stroke="#000000" stroke-width=".7" points="136,-647.324 138.2501,-652.324 136,-649.824 136.0001,-652.324 136.0001,-652.324 136.0001,-652.324 136,-649.824 133.7501,-652.324 136,-647.324 136,-647.324"/>
</g>
<!-- Name : Conv_13
Info : &#45;&gt;Name : Add_15
Info : ALLOWLISTING : ADD/MUL/SUB layer : The variable inputs of layer must have 4 dimensions &#160;&#45;&#45; &#160;file info &#45; tidl_import_common_model_check.cpp , TIDL_checkAddMulSubDivTensorProperties , 281 -->
<g id="edge14" class="edge">
<title>Name : Conv_13
Info : &#45;&gt;Name : Add_15
Info : ALLOWLISTING : ADD/MUL/SUB layer : The variable inputs of layer must have 4 dimensions &#160;&#45;&#45; &#160;file info &#45; tidl_import_common_model_check.cpp , TIDL_checkAddMulSubDivTensorProperties , 281</title>
<path fill="none" stroke="#000000" stroke-width=".7" d="M136,-627.9361C136,-624.7483 136,-621.1148 136,-617.6114"/>
<polygon fill="#000000" stroke="#000000" stroke-width=".7" points="136,-612.296 138.2501,-617.2959 136,-614.796 136.0001,-617.296 136.0001,-617.296 136.0001,-617.296 136,-614.796 133.7501,-617.296 136,-612.296 136,-612.296"/>
</g>
<!-- Name : Relu_16
Info :  -->
<g id="node9" class="node">
<title>Name : Relu_16
Info : </title>
<path fill="#4b1616" stroke="#000000" d="M150.6667,-577C150.6667,-577 109.3333,-577 109.3333,-577 106.1667,-577 103,-573.8333 103,-570.6667 103,-570.6667 103,-564.3333 103,-564.3333 103,-561.1667 106.1667,-558 109.3333,-558 109.3333,-558 150.6667,-558 150.6667,-558 153.8333,-558 157,-561.1667 157,-564.3333 157,-564.3333 157,-570.6667 157,-570.6667 157,-573.8333 153.8333,-577 150.6667,-577"/>
<text text-anchor="middle" x="130" y="-565" font-family="Times,serif" font-size="10.00" fill="#ffffff">13:Relu</text>
</g>
<!-- Name : Conv_33
Info :  -->
<g id="node26" class="node">
<title>Name : Conv_33
Info : </title>
<path fill="#dc143c" stroke="#000000" d="M70.6667,-162C70.6667,-162 27.3333,-162 27.3333,-162 24.1667,-162 21,-158.8333 21,-155.6667 21,-155.6667 21,-149.3333 21,-149.3333 21,-146.1667 24.1667,-143 27.3333,-143 27.3333,-143 70.6667,-143 70.6667,-143 73.8333,-143 77,-146.1667 77,-149.3333 77,-149.3333 77,-155.6667 77,-155.6667 77,-158.8333 73.8333,-162 70.6667,-162"/>
<text text-anchor="middle" x="49" y="-150" font-family="Times,serif" font-size="10.00" fill="#ffffff">34:Conv</text>
</g>
<!-- Name : Relu_16
Info : &#45;&gt;Name : Conv_33
Info :  -->
<g id="edge17" class="edge">
<title>Name : Relu_16
Info : &#45;&gt;Name : Conv_33
Info : </title>
<path fill="none" stroke="#000000" stroke-width=".7" d="M104.3711,-557.8972C80.6406,-547.1471 49,-527.2378 49,-497.5 49,-497.5 49,-497.5 49,-214.5 49,-198.445 49,-180.0514 49,-167.4945"/>
<polygon fill="#000000" stroke="#000000" stroke-width=".7" points="49,-162.1653 51.2501,-167.1652 49,-164.6653 49.0001,-167.1653 49.0001,-167.1653 49.0001,-167.1653 49,-164.6653 46.7501,-167.1653 49,-162.1653 49,-162.1653"/>
</g>
<!-- Name : MaxPool_17
Info : ALLOWLISTING : POOLING layer : Number of input dimensions must be 4 &#160;&#45;&#45; &#160;file info &#45; tidl_import_common_model_check.cpp , TIDL_checkPoolingTensorProperties , 618 -->
<g id="node38" class="node">
<title>Name : MaxPool_17
Info : ALLOWLISTING : POOLING layer : Number of input dimensions must be 4 &#160;&#45;&#45; &#160;file info &#45; tidl_import_common_model_check.cpp , TIDL_checkPoolingTensorProperties , 618</title>
<path fill="#707070" stroke="#000000" d="M160.6667,-542C160.6667,-542 99.3333,-542 99.3333,-542 96.1667,-542 93,-538.8333 93,-535.6667 93,-535.6667 93,-529.3333 93,-529.3333 93,-526.1667 96.1667,-523 99.3333,-523 99.3333,-523 160.6667,-523 160.6667,-523 163.8333,-523 167,-526.1667 167,-529.3333 167,-529.3333 167,-535.6667 167,-535.6667 167,-538.8333 163.8333,-542 160.6667,-542"/>
<text text-anchor="middle" x="130" y="-530" font-family="Times,serif" font-size="10.00" fill="#ffffff">14:MaxPool</text>
</g>
<!-- Name : Relu_16
Info : &#45;&gt;Name : MaxPool_17
Info : ALLOWLISTING : POOLING layer : Number of input dimensions must be 4 &#160;&#45;&#45; &#160;file info &#45; tidl_import_common_model_check.cpp , TIDL_checkPoolingTensorProperties , 618 -->
<g id="edge16" class="edge">
<title>Name : Relu_16
Info : &#45;&gt;Name : MaxPool_17
Info : ALLOWLISTING : POOLING layer : Number of input dimensions must be 4 &#160;&#45;&#45; &#160;file info &#45; tidl_import_common_model_check.cpp , TIDL_checkPoolingTensorProperties , 618</title>
<path fill="none" stroke="#000000" stroke-width=".7" d="M130,-557.9361C130,-554.7483 130,-551.1148 130,-547.6114"/>
<polygon fill="#000000" stroke="#000000" stroke-width=".7" points="130,-542.296 132.2501,-547.2959 130,-544.796 130.0001,-547.296 130.0001,-547.296 130.0001,-547.296 130,-544.796 127.7501,-547.296 130,-542.296 130,-542.296"/>
</g>
<!-- Name : Conv_21
Info :  -->
<g id="node10" class="node">
<title>Name : Conv_21
Info : </title>
<path fill="#209070" stroke="#000000" d="M216.6667,-507C216.6667,-507 173.3333,-507 173.3333,-507 170.1667,-507 167,-503.8333 167,-500.6667 167,-500.6667 167,-494.3333 167,-494.3333 167,-491.1667 170.1667,-488 173.3333,-488 173.3333,-488 216.6667,-488 216.6667,-488 219.8333,-488 223,-491.1667 223,-494.3333 223,-494.3333 223,-500.6667 223,-500.6667 223,-503.8333 219.8333,-507 216.6667,-507"/>
<text text-anchor="middle" x="195" y="-495" font-family="Times,serif" font-size="10.00" fill="#ffffff">15:Conv</text>
</g>
<!-- Name : Add_22
Info : ALLOWLISTING : ADD/MUL/SUB layer : The variable inputs of layer must have 4 dimensions &#160;&#45;&#45; &#160;file info &#45; tidl_import_common_model_check.cpp , TIDL_checkAddMulSubDivTensorProperties , 281 -->
<g id="node39" class="node">
<title>Name : Add_22
Info : ALLOWLISTING : ADD/MUL/SUB layer : The variable inputs of layer must have 4 dimensions &#160;&#45;&#45; &#160;file info &#45; tidl_import_common_model_check.cpp , TIDL_checkAddMulSubDivTensorProperties , 281</title>
<path fill="#707070" stroke="#000000" d="M193.6667,-418C193.6667,-418 152.3333,-418 152.3333,-418 149.1667,-418 146,-414.8333 146,-411.6667 146,-411.6667 146,-405.3333 146,-405.3333 146,-402.1667 149.1667,-399 152.3333,-399 152.3333,-399 193.6667,-399 193.6667,-399 196.8333,-399 200,-402.1667 200,-405.3333 200,-405.3333 200,-411.6667 200,-411.6667 200,-414.8333 196.8333,-418 193.6667,-418"/>
<text text-anchor="middle" x="173" y="-406" font-family="Times,serif" font-size="10.00" fill="#ffffff">19:Add</text>
</g>
<!-- Name : Conv_21
Info : &#45;&gt;Name : Add_22
Info : ALLOWLISTING : ADD/MUL/SUB layer : The variable inputs of layer must have 4 dimensions &#160;&#45;&#45; &#160;file info &#45; tidl_import_common_model_check.cpp , TIDL_checkAddMulSubDivTensorProperties , 281 -->
<g id="edge20" class="edge">
<title>Name : Conv_21
Info : &#45;&gt;Name : Add_22
Info : ALLOWLISTING : ADD/MUL/SUB layer : The variable inputs of layer must have 4 dimensions &#160;&#45;&#45; &#160;file info &#45; tidl_import_common_model_check.cpp , TIDL_checkAddMulSubDivTensorProperties , 281</title>
<path fill="none" stroke="#000000" stroke-width=".7" d="M192.6456,-487.9754C188.8283,-472.5327 181.2584,-441.909 176.7109,-423.5123"/>
<polygon fill="#000000" stroke="#000000" stroke-width=".7" points="175.4042,-418.2259 178.7883,-422.5398 176.0041,-420.6528 176.6041,-423.0798 176.6041,-423.0798 176.6041,-423.0798 176.0041,-420.6528 174.4198,-423.6198 175.4042,-418.2259 175.4042,-418.2259"/>
</g>
<!-- Name : Conv_18
Info :  -->
<g id="node11" class="node">
<title>Name : Conv_18
Info : </title>
<path fill="#209070" stroke="#000000" d="M142.6667,-507C142.6667,-507 99.3333,-507 99.3333,-507 96.1667,-507 93,-503.8333 93,-500.6667 93,-500.6667 93,-494.3333 93,-494.3333 93,-491.1667 96.1667,-488 99.3333,-488 99.3333,-488 142.6667,-488 142.6667,-488 145.8333,-488 149,-491.1667 149,-494.3333 149,-494.3333 149,-500.6667 149,-500.6667 149,-503.8333 145.8333,-507 142.6667,-507"/>
<text text-anchor="middle" x="121" y="-495" font-family="Times,serif" font-size="10.00" fill="#ffffff">16:Conv</text>
</g>
<!-- Name : Relu_19
Info :  -->
<g id="node12" class="node">
<title>Name : Relu_19
Info : </title>
<path fill="#209070" stroke="#000000" d="M147.6667,-480C147.6667,-480 106.3333,-480 106.3333,-480 103.1667,-480 100,-476.8333 100,-473.6667 100,-473.6667 100,-467.3333 100,-467.3333 100,-464.1667 103.1667,-461 106.3333,-461 106.3333,-461 147.6667,-461 147.6667,-461 150.8333,-461 154,-464.1667 154,-467.3333 154,-467.3333 154,-473.6667 154,-473.6667 154,-476.8333 150.8333,-480 147.6667,-480"/>
<text text-anchor="middle" x="127" y="-468" font-family="Times,serif" font-size="10.00" fill="#ffffff">17:Relu</text>
</g>
<!-- Name : Conv_18
Info : &#45;&gt;Name : Relu_19
Info :  -->
<g id="edge21" class="edge">
<title>Name : Conv_18
Info : &#45;&gt;Name : Relu_19
Info : </title>
<path fill="none" stroke="#000000" stroke-width=".7" d="M123.1661,-487.7524C123.334,-486.9971 123.5056,-486.2248 123.6786,-485.4461"/>
<polygon fill="#000000" stroke="#000000" stroke-width=".7" points="124.8169,-480.324 125.9286,-485.6931 124.2745,-482.7645 123.7322,-485.2049 123.7322,-485.2049 123.7322,-485.2049 124.2745,-482.7645 121.5357,-484.7168 124.8169,-480.324 124.8169,-480.324"/>
</g>
<!-- Name : Conv_20
Info :  -->
<g id="node13" class="node">
<title>Name : Conv_20
Info : </title>
<path fill="#209070" stroke="#000000" d="M152.6667,-453C152.6667,-453 109.3333,-453 109.3333,-453 106.1667,-453 103,-449.8333 103,-446.6667 103,-446.6667 103,-440.3333 103,-440.3333 103,-437.1667 106.1667,-434 109.3333,-434 109.3333,-434 152.6667,-434 152.6667,-434 155.8333,-434 159,-437.1667 159,-440.3333 159,-440.3333 159,-446.6667 159,-446.6667 159,-449.8333 155.8333,-453 152.6667,-453"/>
<text text-anchor="middle" x="131" y="-441" font-family="Times,serif" font-size="10.00" fill="#ffffff">18:Conv</text>
</g>
<!-- Name : Relu_19
Info : &#45;&gt;Name : Conv_20
Info :  -->
<g id="edge22" class="edge">
<title>Name : Relu_19
Info : &#45;&gt;Name : Conv_20
Info : </title>
<path fill="none" stroke="#000000" stroke-width=".7" d="M128.4441,-460.7524C128.556,-459.9971 128.6704,-459.2248 128.7858,-458.4461"/>
<polygon fill="#000000" stroke="#000000" stroke-width=".7" points="129.5446,-453.324 131.0375,-458.5998 129.1782,-455.797 128.8118,-458.27 128.8118,-458.27 128.8118,-458.27 129.1782,-455.797 126.5861,-457.9402 129.5446,-453.324 129.5446,-453.324"/>
</g>
<!-- Name : Conv_20
Info : &#45;&gt;Name : Add_22
Info : ALLOWLISTING : ADD/MUL/SUB layer : The variable inputs of layer must have 4 dimensions &#160;&#45;&#45; &#160;file info &#45; tidl_import_common_model_check.cpp , TIDL_checkAddMulSubDivTensorProperties , 281 -->
<g id="edge23" class="edge">
<title>Name : Conv_20
Info : &#45;&gt;Name : Add_22
Info : ALLOWLISTING : ADD/MUL/SUB layer : The variable inputs of layer must have 4 dimensions &#160;&#45;&#45; &#160;file info &#45; tidl_import_common_model_check.cpp , TIDL_checkAddMulSubDivTensorProperties , 281</title>
<path fill="none" stroke="#000000" stroke-width=".7" d="M142.4767,-433.9361C147.1066,-430.0779 152.52,-425.5667 157.4917,-421.4236"/>
<polygon fill="#000000" stroke="#000000" stroke-width=".7" points="161.5372,-418.0523 159.1365,-422.9818 159.6166,-419.6528 157.6961,-421.2533 157.6961,-421.2533 157.6961,-421.2533 159.6166,-419.6528 156.2556,-419.5248 161.5372,-418.0523 161.5372,-418.0523"/>
</g>
<!-- Name : Relu_23
Info :  -->
<g id="node14" class="node">
<title>Name : Relu_23
Info : </title>
<path fill="#30c0d0" stroke="#000000" d="M193.6667,-383C193.6667,-383 152.3333,-383 152.3333,-383 149.1667,-383 146,-379.8333 146,-376.6667 146,-376.6667 146,-370.3333 146,-370.3333 146,-367.1667 149.1667,-364 152.3333,-364 152.3333,-364 193.6667,-364 193.6667,-364 196.8333,-364 200,-367.1667 200,-370.3333 200,-370.3333 200,-376.6667 200,-376.6667 200,-379.8333 196.8333,-383 193.6667,-383"/>
<text text-anchor="middle" x="173" y="-371" font-family="Times,serif" font-size="10.00" fill="#ffffff">20:Relu</text>
</g>
<!-- Name : Conv_35
Info :  -->
<g id="node23" class="node">
<title>Name : Conv_35
Info : </title>
<path fill="#dc143c" stroke="#000000" d="M238.6667,-162C238.6667,-162 195.3333,-162 195.3333,-162 192.1667,-162 189,-158.8333 189,-155.6667 189,-155.6667 189,-149.3333 189,-149.3333 189,-146.1667 192.1667,-143 195.3333,-143 195.3333,-143 238.6667,-143 238.6667,-143 241.8333,-143 245,-146.1667 245,-149.3333 245,-149.3333 245,-155.6667 245,-155.6667 245,-158.8333 241.8333,-162 238.6667,-162"/>
<text text-anchor="middle" x="217" y="-150" font-family="Times,serif" font-size="10.00" fill="#ffffff">31:Conv</text>
</g>
<!-- Name : Relu_23
Info : &#45;&gt;Name : Conv_35
Info :  -->
<g id="edge26" class="edge">
<title>Name : Relu_23
Info : &#45;&gt;Name : Conv_35
Info : </title>
<path fill="none" stroke="#000000" stroke-width=".7" d="M195.0701,-363.9052C202.4676,-359.8468 210.2801,-354.5278 216,-348 230.1725,-331.8257 235,-325.0051 235,-303.5 235,-303.5 235,-303.5 235,-214.5 235,-197.8276 228.9228,-179.5976 223.8307,-167.2492"/>
<polygon fill="#000000" stroke="#000000" stroke-width=".7" points="221.7293,-162.3387 225.7651,-166.0503 222.7129,-164.6371 223.6965,-166.9355 223.6965,-166.9355 223.6965,-166.9355 222.7129,-164.6371 221.628,-167.8208 221.7293,-162.3387 221.7293,-162.3387"/>
</g>
<!-- Name : MaxPool_24
Info : ALLOWLISTING : POOLING layer : Number of input dimensions must be 4 &#160;&#45;&#45; &#160;file info &#45; tidl_import_common_model_check.cpp , TIDL_checkPoolingTensorProperties , 618 -->
<g id="node40" class="node">
<title>Name : MaxPool_24
Info : ALLOWLISTING : POOLING layer : Number of input dimensions must be 4 &#160;&#45;&#45; &#160;file info &#45; tidl_import_common_model_check.cpp , TIDL_checkPoolingTensorProperties , 618</title>
<path fill="#707070" stroke="#000000" d="M200.6667,-348C200.6667,-348 139.3333,-348 139.3333,-348 136.1667,-348 133,-344.8333 133,-341.6667 133,-341.6667 133,-335.3333 133,-335.3333 133,-332.1667 136.1667,-329 139.3333,-329 139.3333,-329 200.6667,-329 200.6667,-329 203.8333,-329 207,-332.1667 207,-335.3333 207,-335.3333 207,-341.6667 207,-341.6667 207,-344.8333 203.8333,-348 200.6667,-348"/>
<text text-anchor="middle" x="170" y="-336" font-family="Times,serif" font-size="10.00" fill="#ffffff">21:MaxPool</text>
</g>
<!-- Name : Relu_23
Info : &#45;&gt;Name : MaxPool_24
Info : ALLOWLISTING : POOLING layer : Number of input dimensions must be 4 &#160;&#45;&#45; &#160;file info &#45; tidl_import_common_model_check.cpp , TIDL_checkPoolingTensorProperties , 618 -->
<g id="edge25" class="edge">
<title>Name : Relu_23
Info : &#45;&gt;Name : MaxPool_24
Info : ALLOWLISTING : POOLING layer : Number of input dimensions must be 4 &#160;&#45;&#45; &#160;file info &#45; tidl_import_common_model_check.cpp , TIDL_checkPoolingTensorProperties , 618</title>
<path fill="none" stroke="#000000" stroke-width=".7" d="M172.1802,-363.9361C171.907,-360.7483 171.5956,-357.1148 171.2953,-353.6114"/>
<polygon fill="#000000" stroke="#000000" stroke-width=".7" points="170.8397,-348.296 173.5085,-353.0855 171.0532,-350.7869 171.2667,-353.2777 171.2667,-353.2777 171.2667,-353.2777 171.0532,-350.7869 169.025,-353.4699 170.8397,-348.296 170.8397,-348.296"/>
</g>
<!-- Name : Conv_28
Info :  -->
<g id="node15" class="node">
<title>Name : Conv_28
Info : </title>
<path fill="#b07320" stroke="#000000" d="M200.6667,-313C200.6667,-313 157.3333,-313 157.3333,-313 154.1667,-313 151,-309.8333 151,-306.6667 151,-306.6667 151,-300.3333 151,-300.3333 151,-297.1667 154.1667,-294 157.3333,-294 157.3333,-294 200.6667,-294 200.6667,-294 203.8333,-294 207,-297.1667 207,-300.3333 207,-300.3333 207,-306.6667 207,-306.6667 207,-309.8333 203.8333,-313 200.6667,-313"/>
<text text-anchor="middle" x="179" y="-301" font-family="Times,serif" font-size="10.00" fill="#ffffff">22:Conv</text>
</g>
<!-- Name : Add_29
Info : ALLOWLISTING : ADD/MUL/SUB layer : The variable inputs of layer must have 4 dimensions &#160;&#45;&#45; &#160;file info &#45; tidl_import_common_model_check.cpp , TIDL_checkAddMulSubDivTensorProperties , 281 -->
<g id="node41" class="node">
<title>Name : Add_29
Info : ALLOWLISTING : ADD/MUL/SUB layer : The variable inputs of layer must have 4 dimensions &#160;&#45;&#45; &#160;file info &#45; tidl_import_common_model_check.cpp , TIDL_checkAddMulSubDivTensorProperties , 281</title>
<path fill="#707070" stroke="#000000" d="M152.6667,-224C152.6667,-224 111.3333,-224 111.3333,-224 108.1667,-224 105,-220.8333 105,-217.6667 105,-217.6667 105,-211.3333 105,-211.3333 105,-208.1667 108.1667,-205 111.3333,-205 111.3333,-205 152.6667,-205 152.6667,-205 155.8333,-205 159,-208.1667 159,-211.3333 159,-211.3333 159,-217.6667 159,-217.6667 159,-220.8333 155.8333,-224 152.6667,-224"/>
<text text-anchor="middle" x="132" y="-212" font-family="Times,serif" font-size="10.00" fill="#ffffff">26:Add</text>
</g>
<!-- Name : Conv_28
Info : &#45;&gt;Name : Add_29
Info : ALLOWLISTING : ADD/MUL/SUB layer : The variable inputs of layer must have 4 dimensions &#160;&#45;&#45; &#160;file info &#45; tidl_import_common_model_check.cpp , TIDL_checkAddMulSubDivTensorProperties , 281 -->
<g id="edge29" class="edge">
<title>Name : Conv_28
Info : &#45;&gt;Name : Add_29
Info : ALLOWLISTING : ADD/MUL/SUB layer : The variable inputs of layer must have 4 dimensions &#160;&#45;&#45; &#160;file info &#45; tidl_import_common_model_check.cpp , TIDL_checkAddMulSubDivTensorProperties , 281</title>
<path fill="none" stroke="#000000" stroke-width=".7" d="M175.9269,-293.7408C171.1882,-279.4841 161.2418,-252.4388 148,-232 147.1047,-230.618 146.0985,-229.2407 145.038,-227.9002"/>
<polygon fill="#000000" stroke="#000000" stroke-width=".7" points="141.7499,-224.022 146.6996,-226.3808 143.3667,-225.9289 144.9834,-227.8358 144.9834,-227.8358 144.9834,-227.8358 143.3667,-225.9289 143.2671,-229.2909 141.7499,-224.022 141.7499,-224.022"/>
</g>
<!-- Name : Conv_25
Info :  -->
<g id="node16" class="node">
<title>Name : Conv_25
Info : </title>
<path fill="#b07320" stroke="#000000" d="M126.6667,-313C126.6667,-313 83.3333,-313 83.3333,-313 80.1667,-313 77,-309.8333 77,-306.6667 77,-306.6667 77,-300.3333 77,-300.3333 77,-297.1667 80.1667,-294 83.3333,-294 83.3333,-294 126.6667,-294 126.6667,-294 129.8333,-294 133,-297.1667 133,-300.3333 133,-300.3333 133,-306.6667 133,-306.6667 133,-309.8333 129.8333,-313 126.6667,-313"/>
<text text-anchor="middle" x="105" y="-301" font-family="Times,serif" font-size="10.00" fill="#ffffff">23:Conv</text>
</g>
<!-- Name : Relu_26
Info :  -->
<g id="node17" class="node">
<title>Name : Relu_26
Info : </title>
<path fill="#b07320" stroke="#000000" d="M129.6667,-286C129.6667,-286 88.3333,-286 88.3333,-286 85.1667,-286 82,-282.8333 82,-279.6667 82,-279.6667 82,-273.3333 82,-273.3333 82,-270.1667 85.1667,-267 88.3333,-267 88.3333,-267 129.6667,-267 129.6667,-267 132.8333,-267 136,-270.1667 136,-273.3333 136,-273.3333 136,-279.6667 136,-279.6667 136,-282.8333 132.8333,-286 129.6667,-286"/>
<text text-anchor="middle" x="109" y="-274" font-family="Times,serif" font-size="10.00" fill="#ffffff">24:Relu</text>
</g>
<!-- Name : Conv_25
Info : &#45;&gt;Name : Relu_26
Info :  -->
<g id="edge30" class="edge">
<title>Name : Conv_25
Info : &#45;&gt;Name : Relu_26
Info : </title>
<path fill="none" stroke="#000000" stroke-width=".7" d="M106.4441,-293.7524C106.556,-292.9971 106.6704,-292.2248 106.7858,-291.4461"/>
<polygon fill="#000000" stroke="#000000" stroke-width=".7" points="107.5446,-286.324 109.0375,-291.5998 107.1782,-288.797 106.8118,-291.27 106.8118,-291.27 106.8118,-291.27 107.1782,-288.797 104.5861,-290.9402 107.5446,-286.324 107.5446,-286.324"/>
</g>
<!-- Name : Conv_27
Info :  -->
<g id="node18" class="node">
<title>Name : Conv_27
Info : </title>
<path fill="#b07320" stroke="#000000" d="M132.6667,-259C132.6667,-259 89.3333,-259 89.3333,-259 86.1667,-259 83,-255.8333 83,-252.6667 83,-252.6667 83,-246.3333 83,-246.3333 83,-243.1667 86.1667,-240 89.3333,-240 89.3333,-240 132.6667,-240 132.6667,-240 135.8333,-240 139,-243.1667 139,-246.3333 139,-246.3333 139,-252.6667 139,-252.6667 139,-255.8333 135.8333,-259 132.6667,-259"/>
<text text-anchor="middle" x="111" y="-247" font-family="Times,serif" font-size="10.00" fill="#ffffff">25:Conv</text>
</g>
<!-- Name : Relu_26
Info : &#45;&gt;Name : Conv_27
Info :  -->
<g id="edge31" class="edge">
<title>Name : Relu_26
Info : &#45;&gt;Name : Conv_27
Info : </title>
<path fill="none" stroke="#000000" stroke-width=".7" d="M109.722,-266.7524C109.778,-265.9971 109.8352,-265.2248 109.8929,-264.4461"/>
<polygon fill="#000000" stroke="#000000" stroke-width=".7" points="110.2723,-259.324 112.1467,-264.4766 110.0876,-261.8172 109.9028,-264.3103 109.9028,-264.3103 109.9028,-264.3103 110.0876,-261.8172 107.659,-264.1441 110.2723,-259.324 110.2723,-259.324"/>
</g>
<!-- Name : Conv_27
Info : &#45;&gt;Name : Add_29
Info : ALLOWLISTING : ADD/MUL/SUB layer : The variable inputs of layer must have 4 dimensions &#160;&#45;&#45; &#160;file info &#45; tidl_import_common_model_check.cpp , TIDL_checkAddMulSubDivTensorProperties , 281 -->
<g id="edge32" class="edge">
<title>Name : Conv_27
Info : &#45;&gt;Name : Add_29
Info : ALLOWLISTING : ADD/MUL/SUB layer : The variable inputs of layer must have 4 dimensions &#160;&#45;&#45; &#160;file info &#45; tidl_import_common_model_check.cpp , TIDL_checkAddMulSubDivTensorProperties , 281</title>
<path fill="none" stroke="#000000" stroke-width=".7" d="M116.7383,-239.9361C118.8332,-236.4447 121.2488,-232.4186 123.5313,-228.6145"/>
<polygon fill="#000000" stroke="#000000" stroke-width=".7" points="126.1224,-224.296 125.4792,-229.7411 124.8361,-226.4397 123.5499,-228.5835 123.5499,-228.5835 123.5499,-228.5835 124.8361,-226.4397 121.6205,-227.4258 126.1224,-224.296 126.1224,-224.296"/>
</g>
<!-- Name : Relu_30
Info :  -->
<g id="node19" class="node">
<title>Name : Relu_30
Info : </title>
<path fill="#dc143c" stroke="#000000" d="M152.6667,-189C152.6667,-189 111.3333,-189 111.3333,-189 108.1667,-189 105,-185.8333 105,-182.6667 105,-182.6667 105,-176.3333 105,-176.3333 105,-173.1667 108.1667,-170 111.3333,-170 111.3333,-170 152.6667,-170 152.6667,-170 155.8333,-170 159,-173.1667 159,-176.3333 159,-176.3333 159,-182.6667 159,-182.6667 159,-185.8333 155.8333,-189 152.6667,-189"/>
<text text-anchor="middle" x="132" y="-177" font-family="Times,serif" font-size="10.00" fill="#ffffff">27:Relu</text>
</g>
<!-- Name : Conv_37
Info :  -->
<g id="node20" class="node">
<title>Name : Conv_37
Info : </title>
<path fill="#dc143c" stroke="#000000" d="M153.6667,-162C153.6667,-162 110.3333,-162 110.3333,-162 107.1667,-162 104,-158.8333 104,-155.6667 104,-155.6667 104,-149.3333 104,-149.3333 104,-146.1667 107.1667,-143 110.3333,-143 110.3333,-143 153.6667,-143 153.6667,-143 156.8333,-143 160,-146.1667 160,-149.3333 160,-149.3333 160,-155.6667 160,-155.6667 160,-158.8333 156.8333,-162 153.6667,-162"/>
<text text-anchor="middle" x="132" y="-150" font-family="Times,serif" font-size="10.00" fill="#ffffff">28:Conv</text>
</g>
<!-- Name : Relu_30
Info : &#45;&gt;Name : Conv_37
Info :  -->
<g id="edge34" class="edge">
<title>Name : Relu_30
Info : &#45;&gt;Name : Conv_37
Info : </title>
<path fill="none" stroke="#000000" stroke-width=".7" d="M132,-169.7524C132,-168.9971 132,-168.2248 132,-167.4461"/>
<polygon fill="#000000" stroke="#000000" stroke-width=".7" points="132,-162.324 134.2501,-167.324 132,-164.824 132.0001,-167.324 132.0001,-167.324 132.0001,-167.324 132,-164.824 129.7501,-167.324 132,-162.324 132,-162.324"/>
</g>
<!-- Name : Relu_38
Info :  -->
<g id="node21" class="node">
<title>Name : Relu_38
Info : </title>
<path fill="#dc143c" stroke="#000000" d="M152.6667,-135C152.6667,-135 111.3333,-135 111.3333,-135 108.1667,-135 105,-131.8333 105,-128.6667 105,-128.6667 105,-122.3333 105,-122.3333 105,-119.1667 108.1667,-116 111.3333,-116 111.3333,-116 152.6667,-116 152.6667,-116 155.8333,-116 159,-119.1667 159,-122.3333 159,-122.3333 159,-128.6667 159,-128.6667 159,-131.8333 155.8333,-135 152.6667,-135"/>
<text text-anchor="middle" x="132" y="-123" font-family="Times,serif" font-size="10.00" fill="#ffffff">29:Relu</text>
</g>
<!-- Name : Conv_37
Info : &#45;&gt;Name : Relu_38
Info :  -->
<g id="edge35" class="edge">
<title>Name : Conv_37
Info : &#45;&gt;Name : Relu_38
Info : </title>
<path fill="none" stroke="#000000" stroke-width=".7" d="M132,-142.7524C132,-141.9971 132,-141.2248 132,-140.4461"/>
<polygon fill="#000000" stroke="#000000" stroke-width=".7" points="132,-135.324 134.2501,-140.324 132,-137.824 132.0001,-140.324 132.0001,-140.324 132.0001,-140.324 132,-137.824 129.7501,-140.324 132,-135.324 132,-135.324"/>
</g>
<!-- Name : Resize_44
Info : SUGGESTION &#45;&#45; [TIDL_ResizeLayer] &#160;Resize kernel with non&#45;power of 2 resize ratio is not optimal. -->
<g id="node22" class="node">
<title>Name : Resize_44
Info : SUGGESTION &#45;&#45; [TIDL_ResizeLayer] &#160;Resize kernel with non&#45;power of 2 resize ratio is not optimal.</title>
<path fill="#dc143c" stroke="#000000" d="M158.1667,-108C158.1667,-108 105.8333,-108 105.8333,-108 102.6667,-108 99.5,-104.8333 99.5,-101.6667 99.5,-101.6667 99.5,-95.3333 99.5,-95.3333 99.5,-92.1667 102.6667,-89 105.8333,-89 105.8333,-89 158.1667,-89 158.1667,-89 161.3333,-89 164.5,-92.1667 164.5,-95.3333 164.5,-95.3333 164.5,-101.6667 164.5,-101.6667 164.5,-104.8333 161.3333,-108 158.1667,-108"/>
<text text-anchor="middle" x="132" y="-96" font-family="Times,serif" font-size="10.00" fill="#ffffff">30:Resize</text>
</g>
<!-- Name : Relu_38
Info : &#45;&gt;Name : Resize_44
Info : SUGGESTION &#45;&#45; [TIDL_ResizeLayer] &#160;Resize kernel with non&#45;power of 2 resize ratio is not optimal. -->
<g id="edge36" class="edge">
<title>Name : Relu_38
Info : &#45;&gt;Name : Resize_44
Info : SUGGESTION &#45;&#45; [TIDL_ResizeLayer] &#160;Resize kernel with non&#45;power of 2 resize ratio is not optimal.</title>
<path fill="none" stroke="#000000" stroke-width=".7" d="M132,-115.7524C132,-114.9971 132,-114.2248 132,-113.4461"/>
<polygon fill="#000000" stroke="#000000" stroke-width=".7" points="132,-108.324 134.2501,-113.324 132,-110.824 132.0001,-113.324 132.0001,-113.324 132.0001,-113.324 132,-110.824 129.7501,-113.324 132,-108.324 132,-108.324"/>
</g>
<!-- Name : Concat_45
Info :  -->
<g id="node31" class="node">
<title>Name : Concat_45
Info : </title>
<path fill="#dc143c" stroke="#000000" d="M199.6667,-81C199.6667,-81 146.3333,-81 146.3333,-81 143.1667,-81 140,-77.8333 140,-74.6667 140,-74.6667 140,-68.3333 140,-68.3333 140,-65.1667 143.1667,-62 146.3333,-62 146.3333,-62 199.6667,-62 199.6667,-62 202.8333,-62 206,-65.1667 206,-68.3333 206,-68.3333 206,-74.6667 206,-74.6667 206,-77.8333 202.8333,-81 199.6667,-81"/>
<text text-anchor="middle" x="173" y="-69" font-family="Times,serif" font-size="10.00" fill="#ffffff">39:Concat</text>
</g>
<!-- Name : Resize_44
Info : SUGGESTION &#45;&#45; [TIDL_ResizeLayer] &#160;Resize kernel with non&#45;power of 2 resize ratio is not optimal.&#45;&gt;Name : Concat_45
Info :  -->
<g id="edge37" class="edge">
<title>Name : Resize_44
Info : SUGGESTION &#45;&#45; [TIDL_ResizeLayer] &#160;Resize kernel with non&#45;power of 2 resize ratio is not optimal.&#45;&gt;Name : Concat_45
Info : </title>
<path fill="none" stroke="#000000" stroke-width=".7" d="M146.8019,-88.7524C149.153,-87.2041 151.6127,-85.5843 154.0433,-83.9837"/>
<polygon fill="#000000" stroke="#000000" stroke-width=".7" points="158.3572,-81.1428 155.4189,-85.7719 156.2693,-82.5178 154.1814,-83.8928 154.1814,-83.8928 154.1814,-83.8928 156.2693,-82.5178 152.9439,-82.0136 158.3572,-81.1428 158.3572,-81.1428"/>
</g>
<!-- Name : Relu_36
Info :  -->
<g id="node24" class="node">
<title>Name : Relu_36
Info : </title>
<path fill="#dc143c" stroke="#000000" d="M236.6667,-135C236.6667,-135 195.3333,-135 195.3333,-135 192.1667,-135 189,-131.8333 189,-128.6667 189,-128.6667 189,-122.3333 189,-122.3333 189,-119.1667 192.1667,-116 195.3333,-116 195.3333,-116 236.6667,-116 236.6667,-116 239.8333,-116 243,-119.1667 243,-122.3333 243,-122.3333 243,-128.6667 243,-128.6667 243,-131.8333 239.8333,-135 236.6667,-135"/>
<text text-anchor="middle" x="216" y="-123" font-family="Times,serif" font-size="10.00" fill="#ffffff">32:Relu</text>
</g>
<!-- Name : Conv_35
Info : &#45;&gt;Name : Relu_36
Info :  -->
<g id="edge38" class="edge">
<title>Name : Conv_35
Info : &#45;&gt;Name : Relu_36
Info : </title>
<path fill="none" stroke="#000000" stroke-width=".7" d="M216.639,-142.7524C216.611,-141.9971 216.5824,-141.2248 216.5536,-140.4461"/>
<polygon fill="#000000" stroke="#000000" stroke-width=".7" points="216.3639,-135.324 218.7975,-140.2373 216.4564,-137.8223 216.549,-140.3206 216.549,-140.3206 216.549,-140.3206 216.4564,-137.8223 214.3005,-140.4039 216.3639,-135.324 216.3639,-135.324"/>
</g>
<!-- Name : Resize_42
Info : SUGGESTION &#45;&#45; [TIDL_ResizeLayer] &#160;Resize kernel with non&#45;power of 2 resize ratio is not optimal. -->
<g id="node25" class="node">
<title>Name : Resize_42
Info : SUGGESTION &#45;&#45; [TIDL_ResizeLayer] &#160;Resize kernel with non&#45;power of 2 resize ratio is not optimal.</title>
<path fill="#dc143c" stroke="#000000" d="M241.1667,-108C241.1667,-108 188.8333,-108 188.8333,-108 185.6667,-108 182.5,-104.8333 182.5,-101.6667 182.5,-101.6667 182.5,-95.3333 182.5,-95.3333 182.5,-92.1667 185.6667,-89 188.8333,-89 188.8333,-89 241.1667,-89 241.1667,-89 244.3333,-89 247.5,-92.1667 247.5,-95.3333 247.5,-95.3333 247.5,-101.6667 247.5,-101.6667 247.5,-104.8333 244.3333,-108 241.1667,-108"/>
<text text-anchor="middle" x="215" y="-96" font-family="Times,serif" font-size="10.00" fill="#ffffff">33:Resize</text>
</g>
<!-- Name : Relu_36
Info : &#45;&gt;Name : Resize_42
Info : SUGGESTION &#45;&#45; [TIDL_ResizeLayer] &#160;Resize kernel with non&#45;power of 2 resize ratio is not optimal. -->
<g id="edge39" class="edge">
<title>Name : Relu_36
Info : &#45;&gt;Name : Resize_42
Info : SUGGESTION &#45;&#45; [TIDL_ResizeLayer] &#160;Resize kernel with non&#45;power of 2 resize ratio is not optimal.</title>
<path fill="none" stroke="#000000" stroke-width=".7" d="M215.639,-115.7524C215.611,-114.9971 215.5824,-114.2248 215.5536,-113.4461"/>
<polygon fill="#000000" stroke="#000000" stroke-width=".7" points="215.3639,-108.324 217.7975,-113.2373 215.4564,-110.8223 215.549,-113.3206 215.549,-113.3206 215.549,-113.3206 215.4564,-110.8223 213.3005,-113.4039 215.3639,-108.324 215.3639,-108.324"/>
</g>
<!-- Name : Resize_42
Info : SUGGESTION &#45;&#45; [TIDL_ResizeLayer] &#160;Resize kernel with non&#45;power of 2 resize ratio is not optimal.&#45;&gt;Name : Concat_45
Info :  -->
<g id="edge40" class="edge">
<title>Name : Resize_42
Info : SUGGESTION &#45;&#45; [TIDL_ResizeLayer] &#160;Resize kernel with non&#45;power of 2 resize ratio is not optimal.&#45;&gt;Name : Concat_45
Info : </title>
<path fill="none" stroke="#000000" stroke-width=".7" d="M199.837,-88.7524C197.4286,-87.2041 194.9089,-85.5843 192.419,-83.9837"/>
<polygon fill="#000000" stroke="#000000" stroke-width=".7" points="187.9999,-81.1428 193.4225,-81.954 190.1028,-82.4947 192.2058,-83.8466 192.2058,-83.8466 192.2058,-83.8466 190.1028,-82.4947 190.9891,-85.7393 187.9999,-81.1428 187.9999,-81.1428"/>
</g>
<!-- Name : Relu_34
Info :  -->
<g id="node27" class="node">
<title>Name : Relu_34
Info : </title>
<path fill="#dc143c" stroke="#000000" d="M69.6667,-135C69.6667,-135 28.3333,-135 28.3333,-135 25.1667,-135 22,-131.8333 22,-128.6667 22,-128.6667 22,-122.3333 22,-122.3333 22,-119.1667 25.1667,-116 28.3333,-116 28.3333,-116 69.6667,-116 69.6667,-116 72.8333,-116 76,-119.1667 76,-122.3333 76,-122.3333 76,-128.6667 76,-128.6667 76,-131.8333 72.8333,-135 69.6667,-135"/>
<text text-anchor="middle" x="49" y="-123" font-family="Times,serif" font-size="10.00" fill="#ffffff">35:Relu</text>
</g>
<!-- Name : Conv_33
Info : &#45;&gt;Name : Relu_34
Info :  -->
<g id="edge41" class="edge">
<title>Name : Conv_33
Info : &#45;&gt;Name : Relu_34
Info : </title>
<path fill="none" stroke="#000000" stroke-width=".7" d="M49,-142.7524C49,-141.9971 49,-141.2248 49,-140.4461"/>
<polygon fill="#000000" stroke="#000000" stroke-width=".7" points="49,-135.324 51.2501,-140.324 49,-137.824 49.0001,-140.324 49.0001,-140.324 49.0001,-140.324 49,-137.824 46.7501,-140.324 49,-135.324 49,-135.324"/>
</g>
<!-- Name : Resize_40
Info : INFORMATION &#45;&#45; [TIDL_ResizeLayer] &#160;Any resize ratio which is power of 2 and greater than 4 will be placed by combination of 4x4 resize layer and 2x2 resize layer. For example a 8x8 resize will be replaced by 4x4 resize followed by 2x2 resize. -->
<g id="node28" class="node">
<title>Name : Resize_40
Info : INFORMATION &#45;&#45; [TIDL_ResizeLayer] &#160;Any resize ratio which is power of 2 and greater than 4 will be placed by combination of 4x4 resize layer and 2x2 resize layer. For example a 8x8 resize will be replaced by 4x4 resize followed by 2x2 resize.</title>
<path fill="#dc143c" stroke="#000000" d="M75.1667,-108C75.1667,-108 22.8333,-108 22.8333,-108 19.6667,-108 16.5,-104.8333 16.5,-101.6667 16.5,-101.6667 16.5,-95.3333 16.5,-95.3333 16.5,-92.1667 19.6667,-89 22.8333,-89 22.8333,-89 75.1667,-89 75.1667,-89 78.3333,-89 81.5,-92.1667 81.5,-95.3333 81.5,-95.3333 81.5,-101.6667 81.5,-101.6667 81.5,-104.8333 78.3333,-108 75.1667,-108"/>
<text text-anchor="middle" x="49" y="-96" font-family="Times,serif" font-size="10.00" fill="#ffffff">36:Resize</text>
</g>
<!-- Name : Relu_34
Info : &#45;&gt;Name : Resize_40
Info : INFORMATION &#45;&#45; [TIDL_ResizeLayer] &#160;Any resize ratio which is power of 2 and greater than 4 will be placed by combination of 4x4 resize layer and 2x2 resize layer. For example a 8x8 resize will be replaced by 4x4 resize followed by 2x2 resize. -->
<g id="edge42" class="edge">
<title>Name : Relu_34
Info : &#45;&gt;Name : Resize_40
Info : INFORMATION &#45;&#45; [TIDL_ResizeLayer] &#160;Any resize ratio which is power of 2 and greater than 4 will be placed by combination of 4x4 resize layer and 2x2 resize layer. For example a 8x8 resize will be replaced by 4x4 resize followed by 2x2 resize.</title>
<path fill="none" stroke="#000000" stroke-width=".7" d="M49,-115.7524C49,-114.9971 49,-114.2248 49,-113.4461"/>
<polygon fill="#000000" stroke="#000000" stroke-width=".7" points="49,-108.324 51.2501,-113.324 49,-110.824 49.0001,-113.324 49.0001,-113.324 49.0001,-113.324 49,-110.824 46.7501,-113.324 49,-108.324 49,-108.324"/>
</g>
<!-- Name : Resize_40
Info : INFORMATION &#45;&#45; [TIDL_ResizeLayer] &#160;Any resize ratio which is power of 2 and greater than 4 will be placed by combination of 4x4 resize layer and 2x2 resize layer. For example a 8x8 resize will be replaced by 4x4 resize followed by 2x2 resize.&#45;&gt;Name : Concat_45
Info :  -->
<g id="edge43" class="edge">
<title>Name : Resize_40
Info : INFORMATION &#45;&#45; [TIDL_ResizeLayer] &#160;Any resize ratio which is power of 2 and greater than 4 will be placed by combination of 4x4 resize layer and 2x2 resize layer. For example a 8x8 resize will be replaced by 4x4 resize followed by 2x2 resize.&#45;&gt;Name : Concat_45
Info : </title>
<path fill="none" stroke="#000000" stroke-width=".7" d="M81.6604,-90.8707C84.4795,-90.2309 87.289,-89.5998 90,-89 104.599,-85.7699 120.6735,-82.3493 134.7567,-79.3974"/>
<polygon fill="#000000" stroke="#000000" stroke-width=".7" points="139.8488,-78.3322 135.4154,-81.5584 137.4017,-78.8441 134.9547,-79.356 134.9547,-79.356 134.9547,-79.356 137.4017,-78.8441 134.494,-77.1537 139.8488,-78.3322 139.8488,-78.3322"/>
</g>
<!-- Name : Relu_32
Info :  -->
<g id="node30" class="node">
<title>Name : Relu_32
Info : </title>
<path fill="#dc143c" stroke="#000000" d="M313.6667,-108C313.6667,-108 272.3333,-108 272.3333,-108 269.1667,-108 266,-104.8333 266,-101.6667 266,-101.6667 266,-95.3333 266,-95.3333 266,-92.1667 269.1667,-89 272.3333,-89 272.3333,-89 313.6667,-89 313.6667,-89 316.8333,-89 320,-92.1667 320,-95.3333 320,-95.3333 320,-101.6667 320,-101.6667 320,-104.8333 316.8333,-108 313.6667,-108"/>
<text text-anchor="middle" x="293" y="-96" font-family="Times,serif" font-size="10.00" fill="#ffffff">38:Relu</text>
</g>
<!-- Name : Conv_31
Info : &#45;&gt;Name : Relu_32
Info :  -->
<g id="edge44" class="edge">
<title>Name : Conv_31
Info : &#45;&gt;Name : Relu_32
Info : </title>
<path fill="none" stroke="#000000" stroke-width=".7" d="M291.722,-115.7524C291.778,-114.9971 291.8352,-114.2248 291.8929,-113.4461"/>
<polygon fill="#000000" stroke="#000000" stroke-width=".7" points="292.2723,-108.324 294.1467,-113.4766 292.0876,-110.8172 291.9028,-113.3103 291.9028,-113.3103 291.9028,-113.3103 292.0876,-110.8172 289.659,-113.1441 292.2723,-108.324 292.2723,-108.324"/>
</g>
<!-- Name : Relu_32
Info : &#45;&gt;Name : Concat_45
Info :  -->
<g id="edge45" class="edge">
<title>Name : Relu_32
Info : &#45;&gt;Name : Concat_45
Info : </title>
<path fill="none" stroke="#000000" stroke-width=".7" d="M265.9115,-91.1884C262.9103,-90.4269 259.894,-89.6828 257,-89 242.1505,-85.4964 225.7374,-81.9951 211.3888,-79.0551"/>
<polygon fill="#000000" stroke="#000000" stroke-width=".7" points="206.2026,-77.9983 211.5512,-76.792 208.6522,-78.4975 211.1019,-78.9967 211.1019,-78.9967 211.1019,-78.9967 208.6522,-78.4975 210.6526,-81.2014 206.2026,-77.9983 206.2026,-77.9983"/>
</g>
<!-- Name : Conv_46
Info :  -->
<g id="node32" class="node">
<title>Name : Conv_46
Info : </title>
<path fill="#dc143c" stroke="#000000" d="M194.6667,-54C194.6667,-54 151.3333,-54 151.3333,-54 148.1667,-54 145,-50.8333 145,-47.6667 145,-47.6667 145,-41.3333 145,-41.3333 145,-38.1667 148.1667,-35 151.3333,-35 151.3333,-35 194.6667,-35 194.6667,-35 197.8333,-35 201,-38.1667 201,-41.3333 201,-41.3333 201,-47.6667 201,-47.6667 201,-50.8333 197.8333,-54 194.6667,-54"/>
<text text-anchor="middle" x="173" y="-42" font-family="Times,serif" font-size="10.00" fill="#ffffff">40:Conv</text>
</g>
<!-- Name : Concat_45
Info : &#45;&gt;Name : Conv_46
Info :  -->
<g id="edge46" class="edge">
<title>Name : Concat_45
Info : &#45;&gt;Name : Conv_46
Info : </title>
<path fill="none" stroke="#000000" stroke-width=".7" d="M173,-61.7524C173,-60.9971 173,-60.2248 173,-59.4461"/>
<polygon fill="#000000" stroke="#000000" stroke-width=".7" points="173,-54.324 175.2501,-59.324 173,-56.824 173.0001,-59.324 173.0001,-59.324 173.0001,-59.324 173,-56.824 170.7501,-59.324 173,-54.324 173,-54.324"/>
</g>
<!-- Output : 40 -->
<g id="node43" class="node">
<title>Output : 40</title>
<path fill="#000000" stroke="#000000" d="M193.6667,-19C193.6667,-19 152.3333,-19 152.3333,-19 149.1667,-19 146,-15.8333 146,-12.6667 146,-12.6667 146,-6.3333 146,-6.3333 146,-3.1667 149.1667,0 152.3333,0 152.3333,0 193.6667,0 193.6667,0 196.8333,0 200,-3.1667 200,-6.3333 200,-6.3333 200,-12.6667 200,-12.6667 200,-15.8333 196.8333,-19 193.6667,-19"/>
<text text-anchor="middle" x="173" y="-7" font-family="Times,serif" font-size="10.00" fill="#ffffff">Output</text>
</g>
<!-- Name : Conv_46
Info : &#45;&gt;Output : 40 -->
<g id="edge48" class="edge">
<title>Name : Conv_46
Info : &#45;&gt;Output : 40</title>
<path fill="none" stroke="#000000" stroke-width=".7" d="M173,-34.9361C173,-31.7483 173,-28.1148 173,-24.6114"/>
<polygon fill="#000000" stroke="#000000" stroke-width=".7" points="173,-19.296 175.2501,-24.2959 173,-21.796 173.0001,-24.296 173.0001,-24.296 173.0001,-24.296 173,-21.796 170.7501,-24.296 173,-19.296 173,-19.296"/>
</g>
<!-- Name : Transpose_2
Info : TIDL ALLOWLISTING LAYER CHECK &#45;&#45; [TIDL_TransposeLayer] &#160;should be removed in import process. If not, this model will not work! -->
<g id="node33" class="node">
<title>Name : Transpose_2
Info : TIDL ALLOWLISTING LAYER CHECK &#45;&#45; [TIDL_TransposeLayer] &#160;should be removed in import process. If not, this model will not work!</title>
<path fill="#707070" stroke="#000000" d="M276.1667,-941C276.1667,-941 211.8333,-941 211.8333,-941 208.6667,-941 205.5,-937.8333 205.5,-934.6667 205.5,-934.6667 205.5,-928.3333 205.5,-928.3333 205.5,-925.1667 208.6667,-922 211.8333,-922 211.8333,-922 276.1667,-922 276.1667,-922 279.3333,-922 282.5,-925.1667 282.5,-928.3333 282.5,-928.3333 282.5,-934.6667 282.5,-934.6667 282.5,-937.8333 279.3333,-941 276.1667,-941"/>
<text text-anchor="middle" x="244" y="-929" font-family="Times,serif" font-size="10.00" fill="#ffffff">0:Transpose</text>
</g>
<!-- Name : Unsqueeze_3
Info : Layer type not supported by TIDL &#45;&#45;&#45; layer type &#45; Unsqueeze, &#160;Node name &#45;Unsqueeze_3 -->
<g id="node34" class="node">
<title>Name : Unsqueeze_3
Info : Layer type not supported by TIDL &#45;&#45;&#45; layer type &#45; Unsqueeze, &#160;Node name &#45;Unsqueeze_3</title>
<path fill="#707070" stroke="#000000" d="M277.6667,-914C277.6667,-914 210.3333,-914 210.3333,-914 207.1667,-914 204,-910.8333 204,-907.6667 204,-907.6667 204,-901.3333 204,-901.3333 204,-898.1667 207.1667,-895 210.3333,-895 210.3333,-895 277.6667,-895 277.6667,-895 280.8333,-895 284,-898.1667 284,-901.3333 284,-901.3333 284,-907.6667 284,-907.6667 284,-910.8333 280.8333,-914 277.6667,-914"/>
<text text-anchor="middle" x="244" y="-902" font-family="Times,serif" font-size="10.00" fill="#ffffff">1:Unsqueeze</text>
</g>
<!-- Name : Transpose_2
Info : TIDL ALLOWLISTING LAYER CHECK &#45;&#45; [TIDL_TransposeLayer] &#160;should be removed in import process. If not, this model will not work!&#45;&gt;Name : Unsqueeze_3
Info : Layer type not supported by TIDL &#45;&#45;&#45; layer type &#45; Unsqueeze, &#160;Node name &#45;Unsqueeze_3 -->
<g id="edge1" class="edge">
<title>Name : Transpose_2
Info : TIDL ALLOWLISTING LAYER CHECK &#45;&#45; [TIDL_TransposeLayer] &#160;should be removed in import process. If not, this model will not work!&#45;&gt;Name : Unsqueeze_3
Info : Layer type not supported by TIDL &#45;&#45;&#45; layer type &#45; Unsqueeze, &#160;Node name &#45;Unsqueeze_3</title>
<path fill="none" stroke="#000000" stroke-width=".7" d="M244,-921.7524C244,-920.9971 244,-920.2248 244,-919.4461"/>
<polygon fill="#000000" stroke="#000000" stroke-width=".7" points="244,-914.324 246.2501,-919.324 244,-916.824 244.0001,-919.324 244.0001,-919.324 244.0001,-919.324 244,-916.824 241.7501,-919.324 244,-914.324 244,-914.324"/>
</g>
<!-- Name : Div_5
Info : Layer type not supported by TIDL &#45;&#45;&#45; layer type &#45; Div, &#160;Node name &#45;Div_5 -->
<g id="node35" class="node">
<title>Name : Div_5
Info : Layer type not supported by TIDL &#45;&#45;&#45; layer type &#45; Div, &#160;Node name &#45;Div_5</title>
<path fill="#707070" stroke="#000000" d="M264.6667,-887C264.6667,-887 223.3333,-887 223.3333,-887 220.1667,-887 217,-883.8333 217,-880.6667 217,-880.6667 217,-874.3333 217,-874.3333 217,-871.1667 220.1667,-868 223.3333,-868 223.3333,-868 264.6667,-868 264.6667,-868 267.8333,-868 271,-871.1667 271,-874.3333 271,-874.3333 271,-880.6667 271,-880.6667 271,-883.8333 267.8333,-887 264.6667,-887"/>
<text text-anchor="middle" x="244" y="-875" font-family="Times,serif" font-size="10.00" fill="#ffffff">2:Div</text>
</g>
<!-- Name : Unsqueeze_3
Info : Layer type not supported by TIDL &#45;&#45;&#45; layer type &#45; Unsqueeze, &#160;Node name &#45;Unsqueeze_3&#45;&gt;Name : Div_5
Info : Layer type not supported by TIDL &#45;&#45;&#45; layer type &#45; Div, &#160;Node name &#45;Div_5 -->
<g id="edge2" class="edge">
<title>Name : Unsqueeze_3
Info : Layer type not supported by TIDL &#45;&#45;&#45; layer type &#45; Unsqueeze, &#160;Node name &#45;Unsqueeze_3&#45;&gt;Name : Div_5
Info : Layer type not supported by TIDL &#45;&#45;&#45; layer type &#45; Div, &#160;Node name &#45;Div_5</title>
<path fill="none" stroke="#000000" stroke-width=".7" d="M244,-894.7524C244,-893.9971 244,-893.2248 244,-892.4461"/>
<polygon fill="#000000" stroke="#000000" stroke-width=".7" points="244,-887.324 246.2501,-892.324 244,-889.824 244.0001,-892.324 244.0001,-892.324 244.0001,-892.324 244,-889.824 241.7501,-892.324 244,-887.324 244,-887.324"/>
</g>
<!-- Name : Div_5
Info : Layer type not supported by TIDL &#45;&#45;&#45; layer type &#45; Div, &#160;Node name &#45;Div_5&#45;&gt;Name : Conv_6
Info :  -->
<g id="edge3" class="edge">
<title>Name : Div_5
Info : Layer type not supported by TIDL &#45;&#45;&#45; layer type &#45; Div, &#160;Node name &#45;Div_5&#45;&gt;Name : Conv_6
Info : </title>
<path fill="none" stroke="#000000" stroke-width=".7" d="M244,-867.9361C244,-864.7483 244,-861.1148 244,-857.6114"/>
<polygon fill="#000000" stroke="#000000" stroke-width=".7" points="244,-852.296 246.2501,-857.2959 244,-854.796 244.0001,-857.296 244.0001,-857.296 244.0001,-857.296 244,-854.796 241.7501,-857.296 244,-852.296 244,-852.296"/>
</g>
<!-- Name : MaxPool_10
Info : ALLOWLISTING : POOLING layer : Number of input dimensions must be 4 &#160;&#45;&#45; &#160;file info &#45; tidl_import_common_model_check.cpp , TIDL_checkPoolingTensorProperties , 618&#45;&gt;Name : Conv_14
Info :  -->
<g id="edge9" class="edge">
<title>Name : MaxPool_10
Info : ALLOWLISTING : POOLING layer : Number of input dimensions must be 4 &#160;&#45;&#45; &#160;file info &#45; tidl_import_common_model_check.cpp , TIDL_checkPoolingTensorProperties , 618&#45;&gt;Name : Conv_14
Info : </title>
<path fill="none" stroke="#000000" stroke-width=".7" d="M207,-716.9361C207,-713.7483 207,-710.1148 207,-706.6114"/>
<polygon fill="#000000" stroke="#000000" stroke-width=".7" points="207,-701.296 209.2501,-706.2959 207,-703.796 207.0001,-706.296 207.0001,-706.296 207.0001,-706.296 207,-703.796 204.7501,-706.296 207,-701.296 207,-701.296"/>
</g>
<!-- Name : MaxPool_10
Info : ALLOWLISTING : POOLING layer : Number of input dimensions must be 4 &#160;&#45;&#45; &#160;file info &#45; tidl_import_common_model_check.cpp , TIDL_checkPoolingTensorProperties , 618&#45;&gt;Name : Conv_11
Info :  -->
<g id="edge10" class="edge">
<title>Name : MaxPool_10
Info : ALLOWLISTING : POOLING layer : Number of input dimensions must be 4 &#160;&#45;&#45; &#160;file info &#45; tidl_import_common_model_check.cpp , TIDL_checkPoolingTensorProperties , 618&#45;&gt;Name : Conv_11
Info : </title>
<path fill="none" stroke="#000000" stroke-width=".7" d="M187.3257,-716.9361C178.6744,-712.7306 168.4273,-707.7494 159.3043,-703.3146"/>
<polygon fill="#000000" stroke="#000000" stroke-width=".7" points="154.6505,-701.0523 160.1311,-701.2148 156.899,-702.1453 159.1474,-703.2384 159.1474,-703.2384 159.1474,-703.2384 156.899,-702.1453 158.1637,-705.2619 154.6505,-701.0523 154.6505,-701.0523"/>
</g>
<!-- Name : Add_15
Info : ALLOWLISTING : ADD/MUL/SUB layer : The variable inputs of layer must have 4 dimensions &#160;&#45;&#45; &#160;file info &#45; tidl_import_common_model_check.cpp , TIDL_checkAddMulSubDivTensorProperties , 281&#45;&gt;Name : Relu_16
Info :  -->
<g id="edge15" class="edge">
<title>Name : Add_15
Info : ALLOWLISTING : ADD/MUL/SUB layer : The variable inputs of layer must have 4 dimensions &#160;&#45;&#45; &#160;file info &#45; tidl_import_common_model_check.cpp , TIDL_checkAddMulSubDivTensorProperties , 281&#45;&gt;Name : Relu_16
Info : </title>
<path fill="none" stroke="#000000" stroke-width=".7" d="M134.3605,-592.9361C133.814,-589.7483 133.1911,-586.1148 132.5905,-582.6114"/>
<polygon fill="#000000" stroke="#000000" stroke-width=".7" points="131.6793,-577.296 134.7419,-581.8439 132.1018,-579.76 132.5242,-582.2241 132.5242,-582.2241 132.5242,-582.2241 132.1018,-579.76 130.3066,-582.6043 131.6793,-577.296 131.6793,-577.296"/>
</g>
<!-- Name : MaxPool_17
Info : ALLOWLISTING : POOLING layer : Number of input dimensions must be 4 &#160;&#45;&#45; &#160;file info &#45; tidl_import_common_model_check.cpp , TIDL_checkPoolingTensorProperties , 618&#45;&gt;Name : Conv_21
Info :  -->
<g id="edge18" class="edge">
<title>Name : MaxPool_17
Info : ALLOWLISTING : POOLING layer : Number of input dimensions must be 4 &#160;&#45;&#45; &#160;file info &#45; tidl_import_common_model_check.cpp , TIDL_checkPoolingTensorProperties , 618&#45;&gt;Name : Conv_21
Info : </title>
<path fill="none" stroke="#000000" stroke-width=".7" d="M147.7615,-522.9361C155.5001,-518.7692 164.653,-513.8407 172.8316,-509.4368"/>
<polygon fill="#000000" stroke="#000000" stroke-width=".7" points="177.2599,-507.0523 173.9243,-511.404 175.0588,-508.2376 172.8576,-509.4229 172.8576,-509.4229 172.8576,-509.4229 175.0588,-508.2376 171.7908,-507.4418 177.2599,-507.0523 177.2599,-507.0523"/>
</g>
<!-- Name : MaxPool_17
Info : ALLOWLISTING : POOLING layer : Number of input dimensions must be 4 &#160;&#45;&#45; &#160;file info &#45; tidl_import_common_model_check.cpp , TIDL_checkPoolingTensorProperties , 618&#45;&gt;Name : Conv_18
Info :  -->
<g id="edge19" class="edge">
<title>Name : MaxPool_17
Info : ALLOWLISTING : POOLING layer : Number of input dimensions must be 4 &#160;&#45;&#45; &#160;file info &#45; tidl_import_common_model_check.cpp , TIDL_checkPoolingTensorProperties , 618&#45;&gt;Name : Conv_18
Info : </title>
<path fill="none" stroke="#000000" stroke-width=".7" d="M127.5407,-522.9361C126.721,-519.7483 125.7867,-516.1148 124.8858,-512.6114"/>
<polygon fill="#000000" stroke="#000000" stroke-width=".7" points="123.519,-507.296 126.9434,-511.5781 124.1416,-509.7172 124.7642,-512.1385 124.7642,-512.1385 124.7642,-512.1385 124.1416,-509.7172 122.5851,-512.6988 123.519,-507.296 123.519,-507.296"/>
</g>
<!-- Name : Add_22
Info : ALLOWLISTING : ADD/MUL/SUB layer : The variable inputs of layer must have 4 dimensions &#160;&#45;&#45; &#160;file info &#45; tidl_import_common_model_check.cpp , TIDL_checkAddMulSubDivTensorProperties , 281&#45;&gt;Name : Relu_23
Info :  -->
<g id="edge24" class="edge">
<title>Name : Add_22
Info : ALLOWLISTING : ADD/MUL/SUB layer : The variable inputs of layer must have 4 dimensions &#160;&#45;&#45; &#160;file info &#45; tidl_import_common_model_check.cpp , TIDL_checkAddMulSubDivTensorProperties , 281&#45;&gt;Name : Relu_23
Info : </title>
<path fill="none" stroke="#000000" stroke-width=".7" d="M173,-398.9361C173,-395.7483 173,-392.1148 173,-388.6114"/>
<polygon fill="#000000" stroke="#000000" stroke-width=".7" points="173,-383.296 175.2501,-388.2959 173,-385.796 173.0001,-388.296 173.0001,-388.296 173.0001,-388.296 173,-385.796 170.7501,-388.296 173,-383.296 173,-383.296"/>
</g>
<!-- Name : MaxPool_24
Info : ALLOWLISTING : POOLING layer : Number of input dimensions must be 4 &#160;&#45;&#45; &#160;file info &#45; tidl_import_common_model_check.cpp , TIDL_checkPoolingTensorProperties , 618&#45;&gt;Name : Conv_28
Info :  -->
<g id="edge27" class="edge">
<title>Name : MaxPool_24
Info : ALLOWLISTING : POOLING layer : Number of input dimensions must be 4 &#160;&#45;&#45; &#160;file info &#45; tidl_import_common_model_check.cpp , TIDL_checkPoolingTensorProperties , 618&#45;&gt;Name : Conv_28
Info : </title>
<path fill="none" stroke="#000000" stroke-width=".7" d="M172.4593,-328.9361C173.279,-325.7483 174.2133,-322.1148 175.1142,-318.6114"/>
<polygon fill="#000000" stroke="#000000" stroke-width=".7" points="176.481,-313.296 177.4149,-318.6988 175.8584,-315.7172 175.2358,-318.1385 175.2358,-318.1385 175.2358,-318.1385 175.8584,-315.7172 173.0566,-317.5781 176.481,-313.296 176.481,-313.296"/>
</g>
<!-- Name : MaxPool_24
Info : ALLOWLISTING : POOLING layer : Number of input dimensions must be 4 &#160;&#45;&#45; &#160;file info &#45; tidl_import_common_model_check.cpp , TIDL_checkPoolingTensorProperties , 618&#45;&gt;Name : Conv_25
Info :  -->
<g id="edge28" class="edge">
<title>Name : MaxPool_24
Info : ALLOWLISTING : POOLING layer : Number of input dimensions must be 4 &#160;&#45;&#45; &#160;file info &#45; tidl_import_common_model_check.cpp , TIDL_checkPoolingTensorProperties , 618&#45;&gt;Name : Conv_25
Info : </title>
<path fill="none" stroke="#000000" stroke-width=".7" d="M152.2385,-328.9361C144.4999,-324.7692 135.347,-319.8407 127.1684,-315.4368"/>
<polygon fill="#000000" stroke="#000000" stroke-width=".7" points="122.7401,-313.0523 128.2092,-313.4418 124.9412,-314.2376 127.1424,-315.4229 127.1424,-315.4229 127.1424,-315.4229 124.9412,-314.2376 126.0757,-317.404 122.7401,-313.0523 122.7401,-313.0523"/>
</g>
<!-- Name : Add_29
Info : ALLOWLISTING : ADD/MUL/SUB layer : The variable inputs of layer must have 4 dimensions &#160;&#45;&#45; &#160;file info &#45; tidl_import_common_model_check.cpp , TIDL_checkAddMulSubDivTensorProperties , 281&#45;&gt;Name : Relu_30
Info :  -->
<g id="edge33" class="edge">
<title>Name : Add_29
Info : ALLOWLISTING : ADD/MUL/SUB layer : The variable inputs of layer must have 4 dimensions &#160;&#45;&#45; &#160;file info &#45; tidl_import_common_model_check.cpp , TIDL_checkAddMulSubDivTensorProperties , 281&#45;&gt;Name : Relu_30
Info : </title>
<path fill="none" stroke="#000000" stroke-width=".7" d="M132,-204.9361C132,-201.7483 132,-198.1148 132,-194.6114"/>
<polygon fill="#000000" stroke="#000000" stroke-width=".7" points="132,-189.296 134.2501,-194.2959 132,-191.796 132.0001,-194.296 132.0001,-194.296 132.0001,-194.296 132,-191.796 129.7501,-194.296 132,-189.296 132,-189.296"/>
</g>
<!-- Input : 0 -->
<g id="node42" class="node">
<title>Input : 0</title>
<path fill="#000000" stroke="#000000" d="M264.6667,-968C264.6667,-968 223.3333,-968 223.3333,-968 220.1667,-968 217,-964.8333 217,-961.6667 217,-961.6667 217,-955.3333 217,-955.3333 217,-952.1667 220.1667,-949 223.3333,-949 223.3333,-949 264.6667,-949 264.6667,-949 267.8333,-949 271,-952.1667 271,-955.3333 271,-955.3333 271,-961.6667 271,-961.6667 271,-964.8333 267.8333,-968 264.6667,-968"/>
<text text-anchor="middle" x="244" y="-956" font-family="Times,serif" font-size="10.00" fill="#ffffff">Input</text>
</g>
<!-- Input : 0&#45;&gt;Name : Transpose_2
Info : TIDL ALLOWLISTING LAYER CHECK &#45;&#45; [TIDL_TransposeLayer] &#160;should be removed in import process. If not, this model will not work! -->
<g id="edge47" class="edge">
<title>Input : 0&#45;&gt;Name : Transpose_2
Info : TIDL ALLOWLISTING LAYER CHECK &#45;&#45; [TIDL_TransposeLayer] &#160;should be removed in import process. If not, this model will not work!</title>
<path fill="none" stroke="#000000" stroke-width=".7" d="M244,-948.7524C244,-947.9971 244,-947.2248 244,-946.4461"/>
<polygon fill="#000000" stroke="#000000" stroke-width=".7" points="244,-941.324 246.2501,-946.324 244,-943.824 244.0001,-946.324 244.0001,-946.324 244.0001,-946.324 244,-943.824 241.7501,-946.324 244,-941.324 244,-941.324"/>
</g>
</g>
</svg>
